{"nbformat":4,"nbformat_minor":0,"metadata":{"colab":{"name":"FFMPEG.ipynb","provenance":[],"collapsed_sections":[],"authorship_tag":"ABX9TyPP5kMR1ne6ONmZs9+atst3"},"kernelspec":{"name":"python3","display_name":"Python 3"}},"cells":[{"cell_type":"code","metadata":{"id":"nw_1JeKSclgc","executionInfo":{"status":"ok","timestamp":1603515532031,"user_tz":-330,"elapsed":39690,"user":{"displayName":"Ezhirko Arulmozhi","photoUrl":"https://lh3.googleusercontent.com/a-/AOh14GhoFAdkPuP5wQJQz3viNN0Ng-TDqiXmUWteDWhIJw=s64","userId":"16774972310128518178"}},"outputId":"8da88f11-c6d0-4202-949c-bed606104ebf","colab":{"base_uri":"https://localhost:8080/","height":34}},"source":["from google.colab import drive\n","drive.mount('/content/gdrive')"],"execution_count":null,"outputs":[{"output_type":"stream","text":["Mounted at /content/gdrive\n"],"name":"stdout"}]},{"cell_type":"code","metadata":{"id":"PsMIe9k7csU1"},"source":["import os\n","os.chdir(\"/content/gdrive/My Drive/EVA5/YoloCustom/data/customdata\")"],"execution_count":null,"outputs":[]},{"cell_type":"code","metadata":{"id":"GkoJMrD1ekwR","executionInfo":{"status":"ok","timestamp":1603515549538,"user_tz":-330,"elapsed":3873,"user":{"displayName":"Ezhirko Arulmozhi","photoUrl":"https://lh3.googleusercontent.com/a-/AOh14GhoFAdkPuP5wQJQz3viNN0Ng-TDqiXmUWteDWhIJw=s64","userId":"16774972310128518178"}},"outputId":"76de2bcb-b0df-484c-9403-6de43c9f8dad","colab":{"base_uri":"https://localhost:8080/","height":102}},"source":["! sudo apt-get install ffmpeg"],"execution_count":null,"outputs":[{"output_type":"stream","text":["Reading package lists... Done\n","Building dependency tree       \n","Reading state information... Done\n","ffmpeg is already the newest version (7:3.4.8-0ubuntu0.2).\n","0 upgraded, 0 newly installed, 0 to remove and 21 not upgraded.\n"],"name":"stdout"}]},{"cell_type":"code","metadata":{"id":"T9Ap7Eyzdn2o","executionInfo":{"status":"ok","timestamp":1603479230522,"user_tz":-330,"elapsed":25046,"user":{"displayName":"Ezhirko Arulmozhi","photoUrl":"https://lh3.googleusercontent.com/a-/AOh14GhoFAdkPuP5wQJQz3viNN0Ng-TDqiXmUWteDWhIJw=s64","userId":"16774972310128518178"}},"outputId":"6c4d57b2-94ba-4a80-ba13-e8a782935215","colab":{"base_uri":"https://localhost:8080/","height":836}},"source":["#!ffmpeg -i Video/PPEVideo.mp4 Dest_Images/img%3d.jpg"],"execution_count":null,"outputs":[{"output_type":"stream","text":["ffmpeg version 3.4.8-0ubuntu0.2 Copyright (c) 2000-2020 the FFmpeg developers\n","  built with gcc 7 (Ubuntu 7.5.0-3ubuntu1~18.04)\n","  configuration: --prefix=/usr --extra-version=0ubuntu0.2 --toolchain=hardened --libdir=/usr/lib/x86_64-linux-gnu --incdir=/usr/include/x86_64-linux-gnu --enable-gpl --disable-stripping --enable-avresample --enable-avisynth --enable-gnutls --enable-ladspa --enable-libass --enable-libbluray --enable-libbs2b --enable-libcaca --enable-libcdio --enable-libflite --enable-libfontconfig --enable-libfreetype --enable-libfribidi --enable-libgme --enable-libgsm --enable-libmp3lame --enable-libmysofa --enable-libopenjpeg --enable-libopenmpt --enable-libopus --enable-libpulse --enable-librubberband --enable-librsvg --enable-libshine --enable-libsnappy --enable-libsoxr --enable-libspeex --enable-libssh --enable-libtheora --enable-libtwolame --enable-libvorbis --enable-libvpx --enable-libwavpack --enable-libwebp --enable-libx265 --enable-libxml2 --enable-libxvid --enable-libzmq --enable-libzvbi --enable-omx --enable-openal --enable-opengl --enable-sdl2 --enable-libdc1394 --enable-libdrm --enable-libiec61883 --enable-chromaprint --enable-frei0r --enable-libopencv --enable-libx264 --enable-shared\n","  libavutil      55. 78.100 / 55. 78.100\n","  libavcodec     57.107.100 / 57.107.100\n","  libavformat    57. 83.100 / 57. 83.100\n","  libavdevice    57. 10.100 / 57. 10.100\n","  libavfilter     6.107.100 /  6.107.100\n","  libavresample   3.  7.  0 /  3.  7.  0\n","  libswscale      4.  8.100 /  4.  8.100\n","  libswresample   2.  9.100 /  2.  9.100\n","  libpostproc    54.  7.100 / 54.  7.100\n","Input #0, mov,mp4,m4a,3gp,3g2,mj2, from 'Video/PPEVideo.mp4':\n","  Metadata:\n","    major_brand     : mp42\n","    minor_version   : 0\n","    compatible_brands: mp42mp41\n","    creation_time   : 2020-10-23T18:48:21.000000Z\n","  Duration: 00:01:14.84, start: 0.000000, bitrate: 3347 kb/s\n","    Stream #0:0(eng): Video: h264 (High) (avc1 / 0x31637661), yuv420p(tv, smpte170m), 720x480, 3013 kb/s, 23.98 fps, 23.98 tbr, 24k tbn, 47.95 tbc (default)\n","    Metadata:\n","      creation_time   : 2020-10-23T18:48:22.000000Z\n","      handler_name    : Alias Data Handler\n","      encoder         : AVC Coding\n","    Stream #0:1(eng): Audio: aac (LC) (mp4a / 0x6134706D), 48000 Hz, stereo, fltp, 317 kb/s (default)\n","    Metadata:\n","      creation_time   : 2020-10-23T18:48:22.000000Z\n","      handler_name    : Alias Data Handler\n","Stream mapping:\n","  Stream #0:0 -> #0:0 (h264 (native) -> mjpeg (native))\n","Press [q] to stop, [?] for help\n","\u001b[1;34m[swscaler @ 0x55c3fd8f8000] \u001b[0m\u001b[0;33mdeprecated pixel format used, make sure you did set range correctly\n","\u001b[0mOutput #0, image2, to 'Dest_Images/img%3d.jpg':\n","  Metadata:\n","    major_brand     : mp42\n","    minor_version   : 0\n","    compatible_brands: mp42mp41\n","    encoder         : Lavf57.83.100\n","    Stream #0:0(eng): Video: mjpeg, yuvj420p(pc), 720x480, q=2-31, 200 kb/s, 23.98 fps, 23.98 tbn, 23.98 tbc (default)\n","    Metadata:\n","      creation_time   : 2020-10-23T18:48:22.000000Z\n","      handler_name    : Alias Data Handler\n","      encoder         : Lavc57.107.100 mjpeg\n","    Side data:\n","      cpb: bitrate max/min/avg: 0/0/200000 buffer size: 0 vbv_delay: -1\n","frame= 1792 fps= 94 q=24.8 Lsize=N/A time=00:01:14.74 bitrate=N/A speed=3.93x    \n","video:23023kB audio:0kB subtitle:0kB other streams:0kB global headers:0kB muxing overhead: unknown\n"],"name":"stdout"}]},{"cell_type":"code","metadata":{"id":"WgPDvuaTgByi","executionInfo":{"status":"ok","timestamp":1603479333671,"user_tz":-330,"elapsed":3906,"user":{"displayName":"Ezhirko Arulmozhi","photoUrl":"https://lh3.googleusercontent.com/a-/AOh14GhoFAdkPuP5wQJQz3viNN0Ng-TDqiXmUWteDWhIJw=s64","userId":"16774972310128518178"}},"outputId":"472f0ef8-5ea7-4d83-b4ae-ba83adca21ee","colab":{"base_uri":"https://localhost:8080/","height":785}},"source":["!ffmpeg -i Video/PPEVideo.mp4 -f mp3 -ab 192000 -vn audio.mp3"],"execution_count":null,"outputs":[{"output_type":"stream","text":["ffmpeg version 3.4.8-0ubuntu0.2 Copyright (c) 2000-2020 the FFmpeg developers\n","  built with gcc 7 (Ubuntu 7.5.0-3ubuntu1~18.04)\n","  configuration: --prefix=/usr --extra-version=0ubuntu0.2 --toolchain=hardened --libdir=/usr/lib/x86_64-linux-gnu --incdir=/usr/include/x86_64-linux-gnu --enable-gpl --disable-stripping --enable-avresample --enable-avisynth --enable-gnutls --enable-ladspa --enable-libass --enable-libbluray --enable-libbs2b --enable-libcaca --enable-libcdio --enable-libflite --enable-libfontconfig --enable-libfreetype --enable-libfribidi --enable-libgme --enable-libgsm --enable-libmp3lame --enable-libmysofa --enable-libopenjpeg --enable-libopenmpt --enable-libopus --enable-libpulse --enable-librubberband --enable-librsvg --enable-libshine --enable-libsnappy --enable-libsoxr --enable-libspeex --enable-libssh --enable-libtheora --enable-libtwolame --enable-libvorbis --enable-libvpx --enable-libwavpack --enable-libwebp --enable-libx265 --enable-libxml2 --enable-libxvid --enable-libzmq --enable-libzvbi --enable-omx --enable-openal --enable-opengl --enable-sdl2 --enable-libdc1394 --enable-libdrm --enable-libiec61883 --enable-chromaprint --enable-frei0r --enable-libopencv --enable-libx264 --enable-shared\n","  libavutil      55. 78.100 / 55. 78.100\n","  libavcodec     57.107.100 / 57.107.100\n","  libavformat    57. 83.100 / 57. 83.100\n","  libavdevice    57. 10.100 / 57. 10.100\n","  libavfilter     6.107.100 /  6.107.100\n","  libavresample   3.  7.  0 /  3.  7.  0\n","  libswscale      4.  8.100 /  4.  8.100\n","  libswresample   2.  9.100 /  2.  9.100\n","  libpostproc    54.  7.100 / 54.  7.100\n","Input #0, mov,mp4,m4a,3gp,3g2,mj2, from 'Video/PPEVideo.mp4':\n","  Metadata:\n","    major_brand     : mp42\n","    minor_version   : 0\n","    compatible_brands: mp42mp41\n","    creation_time   : 2020-10-23T18:48:21.000000Z\n","  Duration: 00:01:14.84, start: 0.000000, bitrate: 3347 kb/s\n","    Stream #0:0(eng): Video: h264 (High) (avc1 / 0x31637661), yuv420p(tv, smpte170m), 720x480, 3013 kb/s, 23.98 fps, 23.98 tbr, 24k tbn, 47.95 tbc (default)\n","    Metadata:\n","      creation_time   : 2020-10-23T18:48:22.000000Z\n","      handler_name    : Alias Data Handler\n","      encoder         : AVC Coding\n","    Stream #0:1(eng): Audio: aac (LC) (mp4a / 0x6134706D), 48000 Hz, stereo, fltp, 317 kb/s (default)\n","    Metadata:\n","      creation_time   : 2020-10-23T18:48:22.000000Z\n","      handler_name    : Alias Data Handler\n","Stream mapping:\n","  Stream #0:1 -> #0:0 (aac (native) -> mp3 (libmp3lame))\n","Press [q] to stop, [?] for help\n","Output #0, mp3, to 'audio.mp3':\n","  Metadata:\n","    major_brand     : mp42\n","    minor_version   : 0\n","    compatible_brands: mp42mp41\n","    TSSE            : Lavf57.83.100\n","    Stream #0:0(eng): Audio: mp3 (libmp3lame), 48000 Hz, stereo, fltp, 192 kb/s (default)\n","    Metadata:\n","      creation_time   : 2020-10-23T18:48:22.000000Z\n","      handler_name    : Alias Data Handler\n","      encoder         : Lavc57.107.100 libmp3lame\n","size=    1753kB time=00:01:14.76 bitrate= 192.1kbits/s speed=33.7x    \n","video:0kB audio:1753kB subtitle:0kB other streams:0kB global headers:0kB muxing overhead: 0.039781%\n"],"name":"stdout"}]},{"cell_type":"code","metadata":{"id":"-4_VCNNF0KKK","executionInfo":{"status":"ok","timestamp":1603517537620,"user_tz":-330,"elapsed":843855,"user":{"displayName":"Ezhirko Arulmozhi","photoUrl":"https://lh3.googleusercontent.com/a-/AOh14GhoFAdkPuP5wQJQz3viNN0Ng-TDqiXmUWteDWhIJw=s64","userId":"16774972310128518178"}},"outputId":"49deb093-7673-4fd4-c922-943604550969","colab":{"base_uri":"https://localhost:8080/","height":887}},"source":["!ffmpeg -framerate 30 -i output/img%3d.jpg -r 30 -y Ezhirko_video.mp4"],"execution_count":null,"outputs":[{"output_type":"stream","text":["ffmpeg version 3.4.8-0ubuntu0.2 Copyright (c) 2000-2020 the FFmpeg developers\n","  built with gcc 7 (Ubuntu 7.5.0-3ubuntu1~18.04)\n","  configuration: --prefix=/usr --extra-version=0ubuntu0.2 --toolchain=hardened --libdir=/usr/lib/x86_64-linux-gnu --incdir=/usr/include/x86_64-linux-gnu --enable-gpl --disable-stripping --enable-avresample --enable-avisynth --enable-gnutls --enable-ladspa --enable-libass --enable-libbluray --enable-libbs2b --enable-libcaca --enable-libcdio --enable-libflite --enable-libfontconfig --enable-libfreetype --enable-libfribidi --enable-libgme --enable-libgsm --enable-libmp3lame --enable-libmysofa --enable-libopenjpeg --enable-libopenmpt --enable-libopus --enable-libpulse --enable-librubberband --enable-librsvg --enable-libshine --enable-libsnappy --enable-libsoxr --enable-libspeex --enable-libssh --enable-libtheora --enable-libtwolame --enable-libvorbis --enable-libvpx --enable-libwavpack --enable-libwebp --enable-libx265 --enable-libxml2 --enable-libxvid --enable-libzmq --enable-libzvbi --enable-omx --enable-openal --enable-opengl --enable-sdl2 --enable-libdc1394 --enable-libdrm --enable-libiec61883 --enable-chromaprint --enable-frei0r --enable-libopencv --enable-libx264 --enable-shared\n","  libavutil      55. 78.100 / 55. 78.100\n","  libavcodec     57.107.100 / 57.107.100\n","  libavformat    57. 83.100 / 57. 83.100\n","  libavdevice    57. 10.100 / 57. 10.100\n","  libavfilter     6.107.100 /  6.107.100\n","  libavresample   3.  7.  0 /  3.  7.  0\n","  libswscale      4.  8.100 /  4.  8.100\n","  libswresample   2.  9.100 /  2.  9.100\n","  libpostproc    54.  7.100 / 54.  7.100\n","Input #0, image2, from 'output/img%3d.jpg':\n","  Duration: 00:00:59.73, start: 0.000000, bitrate: N/A\n","    Stream #0:0: Video: mjpeg, yuvj420p(pc, bt470bg/unknown/unknown), 720x480 [SAR 1:1 DAR 3:2], 30 fps, 30 tbr, 30 tbn, 30 tbc\n","Stream mapping:\n","  Stream #0:0 -> #0:0 (mjpeg (native) -> h264 (libx264))\n","Press [q] to stop, [?] for help\n","\u001b[1;36m[libx264 @ 0x563c5f235e00] \u001b[0musing SAR=1/1\n","\u001b[1;36m[libx264 @ 0x563c5f235e00] \u001b[0musing cpu capabilities: MMX2 SSE2Fast SSSE3 SSE4.2 AVX FMA3 BMI2 AVX2\n","\u001b[1;36m[libx264 @ 0x563c5f235e00] \u001b[0mprofile High, level 3.0\n","\u001b[1;36m[libx264 @ 0x563c5f235e00] \u001b[0m264 - core 152 r2854 e9a5903 - H.264/MPEG-4 AVC codec - Copyleft 2003-2017 - http://www.videolan.org/x264.html - options: cabac=1 ref=3 deblock=1:0:0 analyse=0x3:0x113 me=hex subme=7 psy=1 psy_rd=1.00:0.00 mixed_ref=1 me_range=16 chroma_me=1 trellis=1 8x8dct=1 cqm=0 deadzone=21,11 fast_pskip=1 chroma_qp_offset=-2 threads=3 lookahead_threads=1 sliced_threads=0 nr=0 decimate=1 interlaced=0 bluray_compat=0 constrained_intra=0 bframes=3 b_pyramid=2 b_adapt=1 b_bias=0 direct=1 weightb=1 open_gop=0 weightp=2 keyint=250 keyint_min=25 scenecut=40 intra_refresh=0 rc_lookahead=40 rc=crf mbtree=1 crf=23.0 qcomp=0.60 qpmin=0 qpmax=69 qpstep=4 ip_ratio=1.40 aq=1:1.00\n","Output #0, mp4, to 'Ezhirko_video.mp4':\n","  Metadata:\n","    encoder         : Lavf57.83.100\n","    Stream #0:0: Video: h264 (libx264) (avc1 / 0x31637661), yuvj420p(pc), 720x480 [SAR 1:1 DAR 3:2], q=-1--1, 30 fps, 15360 tbn, 30 tbc\n","    Metadata:\n","      encoder         : Lavc57.107.100 libx264\n","    Side data:\n","      cpb: bitrate max/min/avg: 0/0/0 buffer size: 0 vbv_delay: -1\n","frame= 1792 fps=2.3 q=-1.0 Lsize=   16018kB time=00:00:59.63 bitrate=2200.4kbits/s speed=0.0764x    \n","video:15996kB audio:0kB subtitle:0kB other streams:0kB global headers:0kB muxing overhead: 0.136149%\n","\u001b[1;36m[libx264 @ 0x563c5f235e00] \u001b[0mframe I:42    Avg QP:20.14  size: 22723\n","\u001b[1;36m[libx264 @ 0x563c5f235e00] \u001b[0mframe P:485   Avg QP:24.03  size: 12789\n","\u001b[1;36m[libx264 @ 0x563c5f235e00] \u001b[0mframe B:1265  Avg QP:26.65  size:  7290\n","\u001b[1;36m[libx264 @ 0x563c5f235e00] \u001b[0mconsecutive B-frames:  5.0%  1.9%  2.0% 91.1%\n","\u001b[1;36m[libx264 @ 0x563c5f235e00] \u001b[0mmb I  I16..4: 33.7% 57.9%  8.4%\n","\u001b[1;36m[libx264 @ 0x563c5f235e00] \u001b[0mmb P  I16..4:  9.5% 32.1%  3.5%  P16..4: 10.4%  8.8%  7.4%  0.0%  0.0%    skip:28.3%\n","\u001b[1;36m[libx264 @ 0x563c5f235e00] \u001b[0mmb B  I16..4:  3.6% 13.9%  0.9%  B16..8: 17.4% 10.4%  6.4%  direct: 8.1%  skip:39.3%  L0:47.5% L1:38.4% BI:14.1%\n","\u001b[1;36m[libx264 @ 0x563c5f235e00] \u001b[0m8x8 transform intra:72.1% inter:79.1%\n","\u001b[1;36m[libx264 @ 0x563c5f235e00] \u001b[0mcoded y,uvDC,uvAC intra: 62.3% 62.9% 13.1% inter: 24.5% 18.3% 7.3%\n","\u001b[1;36m[libx264 @ 0x563c5f235e00] \u001b[0mi16 v,h,dc,p: 41% 38% 21%  0%\n","\u001b[1;36m[libx264 @ 0x563c5f235e00] \u001b[0mi8 v,h,dc,ddl,ddr,vr,hd,vl,hu: 20% 22% 44%  3%  1%  1%  1%  2%  6%\n","\u001b[1;36m[libx264 @ 0x563c5f235e00] \u001b[0mi4 v,h,dc,ddl,ddr,vr,hd,vl,hu: 34% 30% 13%  3%  4%  4%  4%  4%  4%\n","\u001b[1;36m[libx264 @ 0x563c5f235e00] \u001b[0mi8c dc,h,v,p: 40% 30% 27%  3%\n","\u001b[1;36m[libx264 @ 0x563c5f235e00] \u001b[0mWeighted P-Frames: Y:2.9% UV:0.8%\n","\u001b[1;36m[libx264 @ 0x563c5f235e00] \u001b[0mref P L0: 51.7% 12.7% 19.8% 15.5%  0.2%\n","\u001b[1;36m[libx264 @ 0x563c5f235e00] \u001b[0mref B L0: 78.5% 16.2%  5.3%\n","\u001b[1;36m[libx264 @ 0x563c5f235e00] \u001b[0mref B L1: 91.3%  8.7%\n","\u001b[1;36m[libx264 @ 0x563c5f235e00] \u001b[0mkb/s:2193.63\n"],"name":"stdout"}]},{"cell_type":"code","metadata":{"id":"e0e_we_U-aTi","executionInfo":{"status":"ok","timestamp":1603517627615,"user_tz":-330,"elapsed":36139,"user":{"displayName":"Ezhirko Arulmozhi","photoUrl":"https://lh3.googleusercontent.com/a-/AOh14GhoFAdkPuP5wQJQz3viNN0Ng-TDqiXmUWteDWhIJw=s64","userId":"16774972310128518178"}},"outputId":"8d0e94ef-c227-4802-be9f-8c59720ce770","colab":{"base_uri":"https://localhost:8080/","height":1000}},"source":["!ffmpeg -i Ezhirko_video.mp4 -i audio.mp3 -shortest Final_PPE_Ezhirko_video.mp4"],"execution_count":null,"outputs":[{"output_type":"stream","text":["ffmpeg version 3.4.8-0ubuntu0.2 Copyright (c) 2000-2020 the FFmpeg developers\n","  built with gcc 7 (Ubuntu 7.5.0-3ubuntu1~18.04)\n","  configuration: --prefix=/usr --extra-version=0ubuntu0.2 --toolchain=hardened --libdir=/usr/lib/x86_64-linux-gnu --incdir=/usr/include/x86_64-linux-gnu --enable-gpl --disable-stripping --enable-avresample --enable-avisynth --enable-gnutls --enable-ladspa --enable-libass --enable-libbluray --enable-libbs2b --enable-libcaca --enable-libcdio --enable-libflite --enable-libfontconfig --enable-libfreetype --enable-libfribidi --enable-libgme --enable-libgsm --enable-libmp3lame --enable-libmysofa --enable-libopenjpeg --enable-libopenmpt --enable-libopus --enable-libpulse --enable-librubberband --enable-librsvg --enable-libshine --enable-libsnappy --enable-libsoxr --enable-libspeex --enable-libssh --enable-libtheora --enable-libtwolame --enable-libvorbis --enable-libvpx --enable-libwavpack --enable-libwebp --enable-libx265 --enable-libxml2 --enable-libxvid --enable-libzmq --enable-libzvbi --enable-omx --enable-openal --enable-opengl --enable-sdl2 --enable-libdc1394 --enable-libdrm --enable-libiec61883 --enable-chromaprint --enable-frei0r --enable-libopencv --enable-libx264 --enable-shared\n","  libavutil      55. 78.100 / 55. 78.100\n","  libavcodec     57.107.100 / 57.107.100\n","  libavformat    57. 83.100 / 57. 83.100\n","  libavdevice    57. 10.100 / 57. 10.100\n","  libavfilter     6.107.100 /  6.107.100\n","  libavresample   3.  7.  0 /  3.  7.  0\n","  libswscale      4.  8.100 /  4.  8.100\n","  libswresample   2.  9.100 /  2.  9.100\n","  libpostproc    54.  7.100 / 54.  7.100\n","Input #0, mov,mp4,m4a,3gp,3g2,mj2, from 'Ezhirko_video.mp4':\n","  Metadata:\n","    major_brand     : isom\n","    minor_version   : 512\n","    compatible_brands: isomiso2avc1mp41\n","    encoder         : Lavf57.83.100\n","  Duration: 00:00:59.73, start: 0.000000, bitrate: 2196 kb/s\n","    Stream #0:0(und): Video: h264 (High) (avc1 / 0x31637661), yuvj420p(pc), 720x480 [SAR 1:1 DAR 3:2], 2193 kb/s, 30 fps, 30 tbr, 15360 tbn, 60 tbc (default)\n","    Metadata:\n","      handler_name    : VideoHandler\n","Input #1, mp3, from 'audio.mp3':\n","  Metadata:\n","    major_brand     : mp42\n","    minor_version   : 0\n","    compatible_brands: mp42mp41\n","    encoder         : Lavf57.83.100\n","  Duration: 00:01:14.78, start: 0.023021, bitrate: 192 kb/s\n","    Stream #1:0: Audio: mp3, 48000 Hz, stereo, s16p, 192 kb/s\n","    Metadata:\n","      encoder         : Lavc57.10\n","Stream mapping:\n","  Stream #0:0 -> #0:0 (h264 (native) -> h264 (libx264))\n","  Stream #1:0 -> #0:1 (mp3 (native) -> aac (native))\n","Press [q] to stop, [?] for help\n","\u001b[1;36m[libx264 @ 0x557bd1cf0800] \u001b[0musing SAR=1/1\n","\u001b[1;36m[libx264 @ 0x557bd1cf0800] \u001b[0musing cpu capabilities: MMX2 SSE2Fast SSSE3 SSE4.2 AVX FMA3 BMI2 AVX2\n","\u001b[1;36m[libx264 @ 0x557bd1cf0800] \u001b[0mprofile High, level 3.0\n","\u001b[1;36m[libx264 @ 0x557bd1cf0800] \u001b[0m264 - core 152 r2854 e9a5903 - H.264/MPEG-4 AVC codec - Copyleft 2003-2017 - http://www.videolan.org/x264.html - options: cabac=1 ref=3 deblock=1:0:0 analyse=0x3:0x113 me=hex subme=7 psy=1 psy_rd=1.00:0.00 mixed_ref=1 me_range=16 chroma_me=1 trellis=1 8x8dct=1 cqm=0 deadzone=21,11 fast_pskip=1 chroma_qp_offset=-2 threads=3 lookahead_threads=1 sliced_threads=0 nr=0 decimate=1 interlaced=0 bluray_compat=0 constrained_intra=0 bframes=3 b_pyramid=2 b_adapt=1 b_bias=0 direct=1 weightb=1 open_gop=0 weightp=2 keyint=250 keyint_min=25 scenecut=40 intra_refresh=0 rc_lookahead=40 rc=crf mbtree=1 crf=23.0 qcomp=0.60 qpmin=0 qpmax=69 qpstep=4 ip_ratio=1.40 aq=1:1.00\n","Output #0, mp4, to 'Final_PPE_Ezhirko_video.mp4':\n","  Metadata:\n","    major_brand     : isom\n","    minor_version   : 512\n","    compatible_brands: isomiso2avc1mp41\n","    encoder         : Lavf57.83.100\n","    Stream #0:0(und): Video: h264 (libx264) (avc1 / 0x31637661), yuvj420p(pc, progressive), 720x480 [SAR 1:1 DAR 3:2], q=-1--1, 30 fps, 15360 tbn, 30 tbc (default)\n","    Metadata:\n","      handler_name    : VideoHandler\n","      encoder         : Lavc57.107.100 libx264\n","    Side data:\n","      cpb: bitrate max/min/avg: 0/0/0 buffer size: 0 vbv_delay: -1\n","    Stream #0:1: Audio: aac (LC) (mp4a / 0x6134706D), 48000 Hz, stereo, fltp, 128 kb/s\n","    Metadata:\n","      encoder         : Lavc57.107.100 aac\n","frame= 1792 fps= 53 q=-1.0 Lsize=   15002kB time=00:00:59.73 bitrate=2057.4kbits/s speed=1.78x    \n","video:14147kB audio:790kB subtitle:0kB other streams:0kB global headers:0kB muxing overhead: 0.438164%\n","\u001b[1;36m[libx264 @ 0x557bd1cf0800] \u001b[0mframe I:44    Avg QP:20.29  size: 22576\n","\u001b[1;36m[libx264 @ 0x557bd1cf0800] \u001b[0mframe P:468   Avg QP:24.58  size: 12423\n","\u001b[1;36m[libx264 @ 0x557bd1cf0800] \u001b[0mframe B:1280  Avg QP:26.98  size:  5998\n","\u001b[1;36m[libx264 @ 0x557bd1cf0800] \u001b[0mconsecutive B-frames:  3.9%  1.6%  3.0% 91.5%\n","\u001b[1;36m[libx264 @ 0x557bd1cf0800] \u001b[0mmb I  I16..4: 25.0% 66.4%  8.6%\n","\u001b[1;36m[libx264 @ 0x557bd1cf0800] \u001b[0mmb P  I16..4:  4.4% 21.5%  3.2%  P16..4: 19.2% 13.3%  9.3%  0.0%  0.0%    skip:29.1%\n","\u001b[1;36m[libx264 @ 0x557bd1cf0800] \u001b[0mmb B  I16..4:  0.8%  2.3%  0.8%  B16..8: 23.4% 12.5%  6.0%  direct: 7.4%  skip:46.7%  L0:45.7% L1:39.6% BI:14.6%\n","\u001b[1;36m[libx264 @ 0x557bd1cf0800] \u001b[0m8x8 transform intra:69.0% inter:81.1%\n","\u001b[1;36m[libx264 @ 0x557bd1cf0800] \u001b[0mcoded y,uvDC,uvAC intra: 65.4% 65.7% 21.8% inter: 22.1% 18.4% 5.8%\n","\u001b[1;36m[libx264 @ 0x557bd1cf0800] \u001b[0mi16 v,h,dc,p: 38% 35% 11% 16%\n","\u001b[1;36m[libx264 @ 0x557bd1cf0800] \u001b[0mi8 v,h,dc,ddl,ddr,vr,hd,vl,hu: 26% 24% 27%  4%  2%  3%  3%  4%  6%\n","\u001b[1;36m[libx264 @ 0x557bd1cf0800] \u001b[0mi4 v,h,dc,ddl,ddr,vr,hd,vl,hu: 31% 29% 14%  4%  4%  4%  5%  5%  4%\n","\u001b[1;36m[libx264 @ 0x557bd1cf0800] \u001b[0mi8c dc,h,v,p: 39% 30% 27%  4%\n","\u001b[1;36m[libx264 @ 0x557bd1cf0800] \u001b[0mWeighted P-Frames: Y:2.6% UV:0.9%\n","\u001b[1;36m[libx264 @ 0x557bd1cf0800] \u001b[0mref P L0: 52.0% 12.2% 21.4% 14.2%  0.2%\n","\u001b[1;36m[libx264 @ 0x557bd1cf0800] \u001b[0mref B L0: 81.6% 14.0%  4.4%\n","\u001b[1;36m[libx264 @ 0x557bd1cf0800] \u001b[0mref B L1: 93.3%  6.7%\n","\u001b[1;36m[libx264 @ 0x557bd1cf0800] \u001b[0mkb/s:1940.01\n","\u001b[1;36m[aac @ 0x557bd1cf1700] \u001b[0mQavg: 11999.416\n"],"name":"stdout"}]}]}